<svg width="64" height="64" viewBox="0 0 64 64" fill="none" xmlns="http://www.w3.org/2000/svg">
  <rect width="64" height="64" rx="16" fill="#0FA37A"/>
  <path d="M31.8 12L38.5 21.5H33.8C30.2 21.5 27.3 24.4 27.3 28V29.5L21.3 25.8V24.3C21.3 17.5 26.9 12 33.8 12H31.8Z" fill="white"/>
  <path d="M47.5 28.6L41.3 39.3L38.9 35.3C37.1 32.2 33.1 31.2 30 33L28.7 33.8V26.8L30 26C35.9 22.7 43.4 24.7 46.8 30.6L47.5 28.6Z" fill="white"/>
  <path d="M16.5 36.4H29L26.6 40.4C24.8 43.5 25.8 47.5 28.9 49.3L30.2 50.1L24.2 53.8L22.9 53C17 49.7 15 42.2 18.4 36.3L16.5 36.4Z" fill="white"/>
</svg>
